<svg xmlns="http://www.w3.org/2000/svg" viewBox="0 0 420 105"><defs><style>.cls-1{fill:#fff;}</style></defs><g id="レイヤー_2" data-name="レイヤー 2"><g id="レイヤー_1-2" data-name="レイヤー 1"><path class="cls-1" d="M353.62,60.5a16,16,0,0,0,28.11-.71,14,14,0,0,1,12.45-7.59H420A52.52,52.52,0,1,1,412.84,26Z"/><circle class="cls-1" cx="166.5" cy="52.5" r="52.5"/><path class="cls-1" d="M300.26,74.41a14.27,14.27,0,0,1,.59-15.2A37.71,37.71,0,0,0,307.35,38,38.09,38.09,0,0,0,269.17,0c-.67,0-1.34,0-2,.05V0H231V91a14.06,14.06,0,0,0,14.1,14H318Z"/><path class="cls-1" d="M60,65.49a15,15,0,1,1,.14-25.9A14.8,14.8,0,0,0,75,39.51L98,26.25a52.49,52.49,0,1,0,7,26.47H77.58A14.06,14.06,0,0,0,65.47,60,14.85,14.85,0,0,1,60,65.49Z"/></g></g></svg>